<svg xmlns="http://www.w3.org/2000/svg" width="172.005" height="66.368" viewBox="0 0 172.005 66.368">
  <g id="crown5" transform="translate(0.503 0.867)">
    <g id="그룹_32413" data-name="그룹 32413" transform="translate(0 30.696)">
      <g id="그룹_32408" data-name="그룹 32408" transform="translate(20.923 2.67)">
        <path id="패스_23239" data-name="패스 23239" d="M506.531,201.971l-.672-1.525a25.451,25.451,0,0,0-2.453-3.932,27.265,27.265,0,0,0-5.067-4.965,35.364,35.364,0,0,0-7.992-4.411,44.873,44.873,0,0,0-10.45-2.6,66.694,66.694,0,0,0-12.034-.331,29.893,29.893,0,0,0-11.821,3.494c-3.673,1.915-6.687,5.008-7.19,8.525a11.617,11.617,0,0,0,.869,5.478l.728,1.284a9.755,9.755,0,0,1,.72.8l1.028.864c.367.274.8.487,1.189.741a14.849,14.849,0,0,0,11.14,1.1,7.885,7.885,0,0,0,4.011-2.858,5.925,5.925,0,0,0,.59-1.028l.4-1.135a5.3,5.3,0,0,0,.141-1.187,4.847,4.847,0,0,0-.082-1.033,7.481,7.481,0,0,0-6.264-5.793c-2.658-.395-5.449,1.892-6.057,4.057a2.511,2.511,0,0,0,.741,2.753,3.79,3.79,0,0,0,2.64,1.01,4.043,4.043,0,0,0,3.366-2.422,2.934,2.934,0,0,0,.164-1.6,3,3,0,0,1,.087,1.676,4.509,4.509,0,0,1-3.481,3.3,4.916,4.916,0,0,1-3.624-.851,4.1,4.1,0,0,1-1.7-4.26,8.012,8.012,0,0,1,2.576-4.393,7.667,7.667,0,0,1,1.13-.854l.674-.387.566-.251a8.1,8.1,0,0,1,3.03-.551,10.4,10.4,0,0,1,9.676,7.777,8.639,8.639,0,0,1,.256,1.943,8.479,8.479,0,0,1-.123,1.83c-.169.6-.338,1.2-.508,1.8a9.741,9.741,0,0,1-.838,1.728,11.6,11.6,0,0,1-5.934,4.732,17.141,17.141,0,0,1-7.405,1.023,18.427,18.427,0,0,1-7.382-2.017c-.577-.346-1.169-.648-1.722-1.048-.541-.436-1.079-.843-1.612-1.33-.523-.579-1.066-1.21-1.515-1.812l-.433-.746-.215-.374-.108-.187-.054-.095-.026-.046a2.966,2.966,0,0,1-.133-.274,16.16,16.16,0,0,1-1.3-8.046,14.232,14.232,0,0,1,3.66-7.361,21.322,21.322,0,0,1,6.111-4.6A29.382,29.382,0,0,1,460.621,181a33.266,33.266,0,0,1,3.5-.718l1.815-.226,1.64-.09a59.676,59.676,0,0,1,12.9,1.018,42.214,42.214,0,0,1,11,3.629,33.387,33.387,0,0,1,8.056,5.529,25.651,25.651,0,0,1,4.675,5.844,21.98,21.98,0,0,1,1.9,4.373C506.382,201.412,506.531,201.971,506.531,201.971Z" transform="translate(-443.969 -179.938)" fill="#f0ead6" stroke="rgba(0,0,0,0)" stroke-width="1"/>
      </g>
      <g id="그룹_32409" data-name="그룹 32409" transform="translate(0 0)">
        <path id="패스_23240" data-name="패스 23240" d="M445.1,207.541a8.019,8.019,0,0,1-5.352-2.2,13.311,13.311,0,0,1-3.537-7.328,15.036,15.036,0,0,1,.654-9.215A14.252,14.252,0,0,1,442.2,183c7.156-4.7,17.158-5.4,27.459-1.915,6.828,2.312,13.083,6.057,19.129,9.681,1.761,1.056,3.524,2.112,5.3,3.132,7.213,4.147,15.833,8.394,25.1,8.441l-.013,2.417c-9.825-.049-18.8-4.455-26.288-8.761-1.789-1.028-3.563-2.092-5.339-3.155-5.939-3.558-12.08-7.236-18.663-9.466-9.584-3.242-18.827-2.643-25.352,1.648a11.824,11.824,0,0,0-4.46,4.783,12.68,12.68,0,0,0-.484,7.743,11.031,11.031,0,0,0,2.837,6.044c1.335,1.274,3.7,2.084,5.47,1.069a5.874,5.874,0,0,0,2.3-3.2c.228-.651.882-2.871-.238-4.122a2.089,2.089,0,0,0-3.45,2.274.887.887,0,0,0,.754.279.526.526,0,0,0-.292.492l2.386-.377a1.92,1.92,0,0,1-1.392,2.2,3.209,3.209,0,0,1-3.652-1.581,4.506,4.506,0,0,1,7.443-4.9c1.377,1.533,1.641,3.914.723,6.534a8.057,8.057,0,0,1-3.378,4.5A5.959,5.959,0,0,1,445.1,207.541Z" transform="translate(-435.806 -178.897)" fill="#f0ead6" stroke="rgba(0,0,0,0)" stroke-width="1"/>
      </g>
      <g id="그룹_32410" data-name="그룹 32410" transform="translate(87.516 2.67)">
        <path id="패스_23241" data-name="패스 23241" d="M470.156,201.971l.425-1.612a21.831,21.831,0,0,1,1.9-4.373,25.653,25.653,0,0,1,4.675-5.844,33.422,33.422,0,0,1,8.054-5.529,42.265,42.265,0,0,1,11-3.629,59.677,59.677,0,0,1,12.9-1.018l1.638.09,1.817.226a33.258,33.258,0,0,1,3.5.718,29.424,29.424,0,0,1,6.785,2.586,21.364,21.364,0,0,1,6.111,4.6,14.25,14.25,0,0,1,3.66,7.361,16.16,16.16,0,0,1-1.3,8.046,2.93,2.93,0,0,1-.133.274l-.026.046-.054.095L531,204.2l-.218.374-.431.746c-.451.6-.992,1.233-1.517,1.812-.531.487-1.069.895-1.61,1.33-.554.4-1.148.7-1.722,1.048a18.438,18.438,0,0,1-7.382,2.017,17.158,17.158,0,0,1-7.408-1.023,11.585,11.585,0,0,1-5.931-4.732,9.755,9.755,0,0,1-.838-1.728l-.508-1.8a8.655,8.655,0,0,1-.126-1.83,8.482,8.482,0,0,1,.259-1.943,10.4,10.4,0,0,1,9.676-7.777,8.1,8.1,0,0,1,3.03.551l.566.251.672.387a7.566,7.566,0,0,1,1.133.854,8.011,8.011,0,0,1,2.576,4.393,4.1,4.1,0,0,1-1.7,4.26,4.915,4.915,0,0,1-3.624.851,4.5,4.5,0,0,1-3.481-3.3,3.006,3.006,0,0,1,.087-1.676,2.935,2.935,0,0,0,.164,1.6,4.042,4.042,0,0,0,3.365,2.422,3.781,3.781,0,0,0,2.638-1.01,2.506,2.506,0,0,0,.743-2.753c-.607-2.166-3.4-4.452-6.057-4.057a7.488,7.488,0,0,0-6.267,5.793,5.016,5.016,0,0,0-.079,1.033,5.307,5.307,0,0,0,.141,1.187l.4,1.135a5.925,5.925,0,0,0,.589,1.028,7.885,7.885,0,0,0,4.011,2.858,14.849,14.849,0,0,0,11.14-1.1c.392-.254.823-.466,1.189-.741l1.028-.864a9.717,9.717,0,0,1,.72-.8l.725-1.284a11.589,11.589,0,0,0,.871-5.478c-.5-3.517-3.517-6.61-7.19-8.525a29.9,29.9,0,0,0-11.824-3.494,66.674,66.674,0,0,0-12.032.331,44.865,44.865,0,0,0-10.453,2.6,35.4,35.4,0,0,0-7.989,4.411,27.267,27.267,0,0,0-5.067,4.965,25.453,25.453,0,0,0-2.453,3.932Z" transform="translate(-470.156 -179.938)" fill="#f0ead6" stroke="rgba(0,0,0,0)" stroke-width="1"/>
      </g>
      <g id="그룹_32411" data-name="그룹 32411" transform="translate(87.626)">
        <path id="패스_23242" data-name="패스 23242" d="M544.277,207.541a5.949,5.949,0,0,1-2.991-.779,8.026,8.026,0,0,1-3.381-4.5c-.918-2.622-.654-5,.723-6.534a4.507,4.507,0,0,1,7.443,4.9,3.214,3.214,0,0,1-3.655,1.579,1.917,1.917,0,0,1-1.392-2.2l2.386.377a.526.526,0,0,0-.292-.492.888.888,0,0,0,.756-.282,2.089,2.089,0,0,0-3.45-2.271c-1.123,1.251-.466,3.471-.238,4.122a5.862,5.862,0,0,0,2.3,3.2c1.766,1.013,4.137.205,5.47-1.069a11.005,11.005,0,0,0,2.837-6.044,12.7,12.7,0,0,0-.484-7.743,11.835,11.835,0,0,0-4.463-4.783c-6.526-4.293-15.771-4.891-25.35-1.648-6.585,2.23-12.724,5.908-18.663,9.466-1.776,1.064-3.55,2.127-5.342,3.155-7.485,4.306-16.461,8.712-26.283,8.761l-.013-2.417c9.258-.046,17.878-4.293,25.094-8.441,1.774-1.02,3.537-2.076,5.3-3.132,6.047-3.624,12.3-7.369,19.129-9.681,10.3-3.488,20.306-2.786,27.457,1.915a14.187,14.187,0,0,1,5.331,5.8,15.012,15.012,0,0,1,.656,9.215,13.294,13.294,0,0,1-3.537,7.328A8.019,8.019,0,0,1,544.277,207.541Z" transform="translate(-470.199 -178.897)" fill="#f0ead6" stroke="rgba(0,0,0,0)" stroke-width="1"/>
      </g>
      <g id="그룹_32412" data-name="그룹 32412" transform="translate(79.288 18.089)">
        <rect id="사각형_49435" data-name="사각형 49435" width="8.64" height="8.64" transform="translate(6.11 12.219) rotate(-135)" fill="#f0ead6" stroke="rgba(0,0,0,0)" stroke-width="1"/>
      </g>
    </g>
    <g id="그룹_32414" data-name="그룹 32414" transform="translate(57.705)">
      <path id="패스_23243" data-name="패스 23243" d="M513.81,187.737c-3.737.549-7.51.974-10.84,2.294-.41.167-.854.359-1.21.538-.395.187-.784.39-1.161.6a14.141,14.141,0,0,0-2.1,1.469,10.785,10.785,0,0,0-2.917,3.824l-6.152,14.28,2.814-15.466a18.934,18.934,0,0,0,.023-6.026,23.3,23.3,0,0,0-.631-2.994q-.211-.738-.461-1.469c-.167-.474-.364-.994-.536-1.417q-.334-.8-.641-1.453l-.684-1.41c-.472-.936-.987-1.858-1.535-2.768-1.1-1.822-2.33-3.6-3.622-5.365h3.924c-1.289,1.769-2.522,3.542-3.619,5.365a42.68,42.68,0,0,0-2.845,5.606l-.3.748-.251.7q-.25.727-.461,1.469a22.837,22.837,0,0,0-.631,2.991,19.068,19.068,0,0,0,.023,6.023l2.855,15.658-6.205-14.467a10.679,10.679,0,0,0-2.914-3.819,16.22,16.22,0,0,0-4.455-2.6,22.4,22.4,0,0,0-2.589-.843c-.884-.228-1.784-.425-2.7-.6-1.828-.331-3.7-.592-5.57-.859,1.879-.19,3.765-.369,5.677-.372a25.911,25.911,0,0,1,5.78.559,16.372,16.372,0,0,1,2.889.907,16.784,16.784,0,0,1,2.719,1.425,12.662,12.662,0,0,1,4.37,4.629l-3.35,1.192a21.034,21.034,0,0,1-.659-7.274,27.092,27.092,0,0,1,.549-3.586c.133-.587.279-1.171.443-1.751l.269-.892.274-.825a36.577,36.577,0,0,1,3.012-6.4c1.169-2.02,2.445-3.937,3.758-5.79l1.966-2.778,1.958,2.778c1.307,1.858,2.589,3.773,3.755,5.793.584,1.007,1.138,2.043,1.651,3.109.251.533.5,1.069.725,1.62.238.59.443,1.138.62,1.646.218.623.385,1.156.556,1.745s.31,1.161.443,1.748a27.589,27.589,0,0,1,.549,3.586,21.217,21.217,0,0,1-.661,7.274l-3.337-1.187a12.614,12.614,0,0,1,4.368-4.629,16.872,16.872,0,0,1,2.717-1.425c.469-.192.943-.364,1.42-.52.52-.159.966-.272,1.453-.382A35.32,35.32,0,0,1,513.81,187.737Z" transform="translate(-458.422 -166.778)" fill="#f0ead6" stroke="rgba(0,0,0,0)" stroke-width="1"/>
    </g>
  </g>
</svg>
