<svg xmlns="http://www.w3.org/2000/svg" width="1040" height="1280.002" viewBox="0 0 1040 1280.002">
  <g id="main-service-bg" transform="translate(41.985 0.002)">
    <path id="패스_33141" data-name="패스 33141" d="M17.887,13.908s-.058.194-.178.567a9.373,9.373,0,0,0-.409,1.664,13.846,13.846,0,0,0,.425,6.334,16.954,16.954,0,0,0,5.428,8.2,21.957,21.957,0,0,0,12.209,4.6,29.628,29.628,0,0,0,15.23-2.944,12.374,12.374,0,0,0,5.528-5.073c1.07-2.124,1.232-4.777.01-6.591a5.288,5.288,0,0,0-5.779-1.93,2.782,2.782,0,0,0-1.086.718c-.126.141-.3.31-.388.422a.515.515,0,0,1-.079.179,3.636,3.636,0,0,0-.231.553,4.54,4.54,0,0,0,.383,3.089c1.967,4.826,8.884,6,14.773,4.3,6.073-1.533,11.123-5.626,16.064-9.9A83.8,83.8,0,0,1,95.977,6.439c5.68-3.075,12-5.834,18.822-5.48a17.817,17.817,0,0,1,9,3.007,11.1,11.1,0,0,1,4.82,7.149,9.5,9.5,0,0,1-2.2,7.459,8.406,8.406,0,0,1-6.671,3.06c-5.071-.33-7.93-4.709-6.8-7.716a5.337,5.337,0,0,1,2.785-3.007,5.99,5.99,0,0,1,3-.655,4.281,4.281,0,0,1,2.344.805,4.233,4.233,0,0,0-2.349-.543,5.389,5.389,0,0,0-2.675.883,4.789,4.789,0,0,0-2.124,2.726,4.1,4.1,0,0,0,1.2,3.827,6.369,6.369,0,0,0,4.547,1.906c3.776,0,6.828-4.331,6.015-8.25-.871-4.04-5.853-7.027-11.16-7.091-5.281-.078-10.856,2.449-16.205,5.524a70.65,70.65,0,0,0-7.772,5.189c-2.486,1.906-4.856,4.035-7.353,6.218a81.85,81.85,0,0,1-8.045,6.426,32.872,32.872,0,0,1-10.012,4.7,23.165,23.165,0,0,1-11.658.238l-1.537-.47-1.306-.524A12.914,12.914,0,0,1,44.33,25.44a8.664,8.664,0,0,1-.5-6.125,7.429,7.429,0,0,1,.766-1.6c.189-.276.388-.553.6-.815.168-.194.294-.3.441-.456a7.678,7.678,0,0,1,3.031-1.872,10.021,10.021,0,0,1,11.4,3.991A10.305,10.305,0,0,1,59.916,29a16.336,16.336,0,0,1-7.52,6.47,32.067,32.067,0,0,1-17.38,2.517A23.005,23.005,0,0,1,21.81,31.934a17.952,17.952,0,0,1-5.066-9.263,13.37,13.37,0,0,1,.283-6.591,10.493,10.493,0,0,1,.614-1.63l.246-.543" transform="translate(27.866 3.57)" fill="#f0ead6"/>
    <path id="패스_33142" data-name="패스 33142" d="M33.145,19.3a10.28,10.28,0,0,0-1.3-.17,13.086,13.086,0,0,0-8.48,2.289A9.433,9.433,0,0,0,20.186,33.3a9.674,9.674,0,0,0,5.889,4.811,10.369,10.369,0,0,0,8.129-.771A11.835,11.835,0,0,0,39.648,30.9a12.017,12.017,0,0,0,.079-8.342,13.185,13.185,0,0,0-5.334-6.45,15.648,15.648,0,0,0-8.134-2.241,45.061,45.061,0,0,0-8.37.854,34.9,34.9,0,0,1-7.636.98,8.074,8.074,0,0,1-5.664-2.309A3.084,3.084,0,0,1,3.75,9.921a1.392,1.392,0,0,1,1.017-.786,1.247,1.247,0,0,0-.755.873,2.709,2.709,0,0,0,1.306,2.706,7.059,7.059,0,0,0,4.9,1.149c2.019-.17,4.258-1.043,6.938-1.8a39.039,39.039,0,0,1,9.02-1.765,18.975,18.975,0,0,1,10.657,2.255,16.962,16.962,0,0,1,7.6,8.473,16.326,16.326,0,0,1,.11,11.407,16.691,16.691,0,0,1-7.861,8.914,15.064,15.064,0,0,1-12.193.7A13,13,0,0,1,16.6,34.6a11.853,11.853,0,0,1,.283-9.1,11.529,11.529,0,0,1,5.4-5.611A13.483,13.483,0,0,1,28.132,18.4a11.787,11.787,0,0,1,3.776.47,10.169,10.169,0,0,1,1.238.422" transform="translate(-27.091 35.168)" fill="#f0ead6"/>
    <path id="패스_33143" data-name="패스 33143" d="M14.506,16.989l.587-.228a12.592,12.592,0,0,1,1.762-.567,16.84,16.84,0,0,1,7.132-.262A20.631,20.631,0,0,1,34,20.617a20.062,20.062,0,0,1,6.55,12.207,25.776,25.776,0,0,1-2.722,16.063,16.068,16.068,0,0,1-7,6.96,12.8,12.8,0,0,1-11.281.131,8.627,8.627,0,0,1-4.321-10.534,6.991,6.991,0,0,1,2.03-2.8c.163-.136.283-.252.488-.407.288-.194.582-.373.881-.548a8.854,8.854,0,0,1,1.725-.713,10.813,10.813,0,0,1,6.629.466,13.427,13.427,0,0,1,5.087,3.356,11.418,11.418,0,0,1,1.815,2.488l.566,1.208.514,1.416a18.475,18.475,0,0,1-.257,10.781,28.716,28.716,0,0,1-5.092,9.254,78.469,78.469,0,0,1-6.949,7.435c-2.36,2.313-4.668,4.506-6.729,6.8a66.338,66.338,0,0,0-5.617,7.188c-3.32,4.947-6.052,10.1-5.968,14.981.063,4.9,3.293,9.511,7.667,10.316,4.237.752,8.926-2.071,8.921-5.563a5.51,5.51,0,0,0-2.056-4.2,4.952,4.952,0,0,0-4.143-1.115,5.144,5.144,0,0,0-2.947,1.969,4.492,4.492,0,0,0-.954,2.473,3.5,3.5,0,0,0,.587,2.168,3.663,3.663,0,0,1-.871-2.168,4.85,4.85,0,0,1,.708-2.774,5.516,5.516,0,0,1,3.252-2.575c3.252-1.043,7.987,1.6,8.349,6.285a7.371,7.371,0,0,1-3.309,6.169,11.518,11.518,0,0,1-8.071,2.032,12.241,12.241,0,0,1-7.73-4.457A14.932,14.932,0,0,1,.5,106.576c-.383-6.3,2.6-12.144,5.931-17.4a79.1,79.1,0,0,1,12.6-14.967c4.631-4.569,9.057-9.239,10.714-14.85,1.841-5.442.572-11.839-4.652-13.662a5.7,5.7,0,0,0-3.341-.349,3.676,3.676,0,0,0-.593.213.506.506,0,0,1-.194.068c-.126.082-.309.247-.462.364a2.586,2.586,0,0,0-.776,1,4.513,4.513,0,0,0,2.093,5.34c1.961,1.135,4.825.98,7.127-.01a12.393,12.393,0,0,0,5.491-5.107,24.05,24.05,0,0,0,3.183-14.079,18.682,18.682,0,0,0-4.977-11.286,18.81,18.81,0,0,0-8.874-5.02,17.6,17.6,0,0,0-6.844-.4,12,12,0,0,0-1.8.383c-.4.107-.614.165-.614.165" transform="translate(-40.013 60.313)" fill="#f0ead6"/>
    <path id="패스_33144" data-name="패스 33144" d="M20.44,30.594a8.539,8.539,0,0,1-.456-1.145,9.422,9.422,0,0,1-.509-3.487,11.018,11.018,0,0,1,1.6-5.4,11.788,11.788,0,0,1,6.073-5,14.825,14.825,0,0,1,9.839-.262,13.106,13.106,0,0,1,8.061,7.289,12.124,12.124,0,0,1-.76,11.271,17.475,17.475,0,0,1-9.644,7.27,20.485,20.485,0,0,1-12.34-.1A17.672,17.672,0,0,1,13.14,34,15.489,15.489,0,0,1,10.7,24.148a31.56,31.56,0,0,1,1.909-8.337c.829-2.473,1.767-4.549,1.956-6.416a5.849,5.849,0,0,0-1.243-4.53,3.157,3.157,0,0,0-2.932-1.2,1.268,1.268,0,0,0-.944.7,1.3,1.3,0,0,1,.85-.941,3.754,3.754,0,0,1,3.755.776,6.99,6.99,0,0,1,2.491,5.233c.131,2.275-.551,4.651-1.059,7.061a35.869,35.869,0,0,0-.918,7.74,12.846,12.846,0,0,0,2.418,7.512,13.957,13.957,0,0,0,6.986,4.932,15.067,15.067,0,0,0,9.02-.068,12.532,12.532,0,0,0,6.97-5.034,8.319,8.319,0,0,0,.834-7.512,9.4,9.4,0,0,0-5.2-5.446,12.08,12.08,0,0,0-7.452-.475,10.485,10.485,0,0,0-5.407,3.409,11.03,11.03,0,0,0-2.245,4.52,10.273,10.273,0,0,0-.231,3.322,8.221,8.221,0,0,0,.184,1.2" transform="translate(-1.884 12.308)" fill="#f0ead6"/>
    <path id="패스_33145" data-name="패스 33145" d="M18.266,13.085a2.949,2.949,0,0,1,0,4.4,3.572,3.572,0,0,1-4.762,0,2.949,2.949,0,0,1,0-4.4,3.572,3.572,0,0,1,4.762,0" transform="translate(11.142 46.873)" fill="#f0ead6"/>
    <path id="패스_33146" data-name="패스 33146" d="M32.39,10.156a3.377,3.377,0,0,1,6.734,0,3.377,3.377,0,0,1-6.734,0" transform="translate(95.491 27.11)" fill="#f0ead6"/>
    <path id="패스_33147" data-name="패스 33147" d="M9.949,37.93a3.123,3.123,0,1,1,0-6.227,3.123,3.123,0,1,1,0,6.227" transform="translate(-14.048 122.052)" fill="#f0ead6"/>
    <path id="패스_33148" data-name="패스 33148" d="M16.09,5.44a25.238,25.238,0,0,1-.85,5.8A12.115,12.115,0,0,0,6.377,5.91l-.115-.1.01.087-.089-.015.11.107a11.073,11.073,0,0,0,5.758,8.2,32.025,32.025,0,0,1-6.272.781c1.411.262,2.281,1.518,3.351,2.41a7.464,7.464,0,0,0,5.6,1.557,5.683,5.683,0,0,0,3.561-1.727l.01,0a1,1,0,0,1,.1-.1,1.011,1.011,0,0,1,.11-.1l-.005-.01a5.009,5.009,0,0,0,1.867-3.288A6.2,6.2,0,0,0,18.7,8.534C17.731,7.55,16.373,6.74,16.09,5.44" transform="translate(-17.456 20.943)" fill="#f0ead6"/>
    <path id="패스_33149" data-name="패스 33149" d="M60.127,14.263a3.985,3.985,0,0,1,3.818,3.109,3.921,3.921,0,0,1-.236,2.663,4.749,4.749,0,0,1-2.014,2.027,7.318,7.318,0,0,1-5.832.344A7.9,7.9,0,0,1,51.631,18.5a9.875,9.875,0,0,1-.923-5.354,11.693,11.693,0,0,1,1.851-5.228,16.786,16.786,0,0,1,9.073-6.659,17.764,17.764,0,0,1,2.926-.64c.65-.082.928-.087,1.416-.131C66.462.46,67.013.46,67.527.465a21.9,21.9,0,0,1,5.774,1A25.292,25.292,0,0,1,83,7.187c.656.626,1.332,1.373,1.851,1.979.608.742,1.164,1.465,1.668,2.2a32.77,32.77,0,0,1,2.633,4.612A42.428,42.428,0,0,1,92.3,25.742l.975,4.971-4.8-2.478a6.184,6.184,0,0,0-3.3-.689,12.108,12.108,0,0,0-3.907.917,21.932,21.932,0,0,0-3.865,2c-.545.344-1.311.888-1.919,1.295L73.594,33.1c-5.04,3.671-9.886,8.075-15.948,11.223l-1.138.577-1.175.533c-.718.33-1.495.655-2.349.951a32.05,32.05,0,0,1-4.966,1.45,42.284,42.284,0,0,1-10.19.951,40.854,40.854,0,0,1-9.975-1.567,41.047,41.047,0,0,1-4.673-1.7,40.256,40.256,0,0,1-4.311-2.3A41.773,41.773,0,0,0,37.8,46.5a40.245,40.245,0,0,0,9.33-1.615,36.59,36.59,0,0,0,4.348-1.586,21.989,21.989,0,0,0,2.113-1l1.017-.529.991-.577c5.26-3.182,9.807-7.488,14.931-11.538L72.5,28.133c.7-.514,1.243-.907,2.045-1.431A26.934,26.934,0,0,1,79.264,24.2a17.49,17.49,0,0,1,5.617-1.343,11.667,11.667,0,0,1,6.2,1.28l-3.834,2.493a42.576,42.576,0,0,0-2.759-8.807,28.315,28.315,0,0,0-2.2-3.987c-.43-.635-.881-1.232-1.316-1.785-.561-.669-1.007-1.164-1.552-1.712a20.42,20.42,0,0,0-7.646-4.884A17.259,17.259,0,0,0,67.3,4.515l-1.065-.044c-.388.015-.986.024-1.2.044a13.273,13.273,0,0,0-2.2.359A13.448,13.448,0,0,0,55.47,9.626a9.1,9.1,0,0,0-1.762,3.793,7.476,7.476,0,0,0,.315,4.166,5.294,5.294,0,0,0,7,3.274A3.137,3.137,0,0,0,63.153,17.5a3.493,3.493,0,0,0-3.026-3.235" transform="translate(38.103 1.779)" fill="#f0ead6"/>
    <path id="패스_33150" data-name="패스 33150" d="M14.926,56.327c.2,1.678,1.925,2.692,3.5,2.8a3.469,3.469,0,0,0,3.64-1.974,4.537,4.537,0,0,0-.194-4.006,5.86,5.86,0,0,0-3.351-2.464,9.322,9.322,0,0,0-4.5-.291,10.593,10.593,0,0,0-4.1,1.63,12.458,12.458,0,0,0-5.145,6.8,10.569,10.569,0,0,0-.383,2.037c-.026.2-.031.752-.047,1.106l.047.994A13.61,13.61,0,0,0,5.4,67.089a18.8,18.8,0,0,0,5.281,7.071c.593.5,1.128.921,1.851,1.436.6.407,1.243.824,1.93,1.212a31.08,31.08,0,0,0,4.316,2.037A51.871,51.871,0,0,0,28.3,81.4l-2.7,3.545a9.532,9.532,0,0,1-1.39-5.733,14.236,14.236,0,0,1,1.458-5.184,23.708,23.708,0,0,1,2.711-4.365c.566-.742,1-1.246,1.547-1.891l1.642-1.824c4.39-4.733,9.041-8.943,12.482-13.808l.624-.917.566-.941a17.831,17.831,0,0,0,1.086-1.954,30.492,30.492,0,0,0,1.715-4.016,32.139,32.139,0,0,0,1.746-8.623,33.638,33.638,0,0,0-3.545-17.5,35,35,0,0,1,2.491,3.982,35.526,35.526,0,0,1,1.836,4.321,32.444,32.444,0,0,1,1.694,9.22,30.411,30.411,0,0,1-.178,4.733,31.424,31.424,0,0,1-.85,4.685,26.326,26.326,0,0,1-1.568,4.593A21.061,21.061,0,0,1,48.642,51.9l-.566,1.086-.629,1.048c-3.4,5.611-8.166,10.083-12.146,14.744l-1.453,1.746c-.441.558-1.017,1.266-1.4,1.77a19.564,19.564,0,0,0-2.166,3.569,9.944,9.944,0,0,0-.991,3.618,5.031,5.031,0,0,0,.745,3.051l2.68,4.442-5.376-.9a51.959,51.959,0,0,1-10.567-2.915,37.394,37.394,0,0,1-4.987-2.435c-.792-.461-1.579-.975-2.376-1.537-.656-.48-1.463-1.111-2.14-1.712A22.894,22.894,0,0,1,1.086,68.51,17.82,17.82,0,0,1,0,63.175c0-.48,0-.994.021-1.44.047-.451.052-.713.142-1.309a14.509,14.509,0,0,1,.692-2.706,15.957,15.957,0,0,1,7.206-8.39,14.151,14.151,0,0,1,5.653-1.707,12.34,12.34,0,0,1,5.79.849,7.877,7.877,0,0,1,4.227,3.919,5.835,5.835,0,0,1-.372,5.383,4.848,4.848,0,0,1-2.187,1.872,4.982,4.982,0,0,1-2.879.209c-1.82-.378-3.467-1.828-3.367-3.526" transform="translate(-41.985 70.021)" fill="#f0ead6"/>
    <path id="패스_33151" data-name="패스 33151" d="M4.858,105.867H0V0H118.724V4.491H4.858Z" transform="translate(-41.979 -0.002)" fill="#f0ead6"/>
    <path id="패스_33152" data-name="패스 33152" d="M256.014,13.908s.063.194.178.567a9.77,9.77,0,0,1,.414,1.664,13.936,13.936,0,0,1-.43,6.334,16.917,16.917,0,0,1-5.428,8.2,21.941,21.941,0,0,1-12.209,4.6,29.628,29.628,0,0,1-15.23-2.944,12.373,12.373,0,0,1-5.528-5.073c-1.07-2.124-1.232-4.777-.01-6.591a5.288,5.288,0,0,1,5.779-1.93,2.781,2.781,0,0,1,1.086.718c.126.141.3.31.393.422a.426.426,0,0,0,.073.179,3.174,3.174,0,0,1,.231.553,4.54,4.54,0,0,1-.383,3.089c-1.967,4.826-8.884,6-14.774,4.3-6.073-1.533-11.123-5.626-16.064-9.9a83.8,83.8,0,0,0-16.19-11.649c-5.68-3.075-12-5.834-18.822-5.48a17.817,17.817,0,0,0-9,3.007,11.114,11.114,0,0,0-4.82,7.149,9.5,9.5,0,0,0,2.2,7.459,8.407,8.407,0,0,0,6.671,3.06c5.071-.33,7.93-4.709,6.8-7.716a5.337,5.337,0,0,0-2.785-3.007,5.983,5.983,0,0,0-2.995-.655,4.229,4.229,0,0,0-2.344.805,4.181,4.181,0,0,1,2.344-.543,5.372,5.372,0,0,1,2.675.883,4.789,4.789,0,0,1,2.124,2.726,4.1,4.1,0,0,1-1.2,3.827,6.369,6.369,0,0,1-4.547,1.906c-3.776,0-6.828-4.331-6.015-8.25.871-4.04,5.858-7.027,11.16-7.091,5.281-.078,10.856,2.449,16.205,5.524a70.647,70.647,0,0,1,7.772,5.189c2.486,1.906,4.856,4.035,7.353,6.218a81.843,81.843,0,0,0,8.045,6.426,32.871,32.871,0,0,0,10.012,4.7,23.166,23.166,0,0,0,11.658.238l1.537-.47,1.306-.524a12.914,12.914,0,0,0,6.325-6.382,8.664,8.664,0,0,0,.5-6.125,7.428,7.428,0,0,0-.766-1.6c-.189-.276-.388-.553-.6-.815-.168-.194-.294-.3-.441-.456a7.677,7.677,0,0,0-3.031-1.872,10.021,10.021,0,0,0-11.4,3.991A10.317,10.317,0,0,0,213.985,29a16.336,16.336,0,0,0,7.52,6.47,32.067,32.067,0,0,0,17.38,2.517,23,23,0,0,0,13.205-6.053,17.952,17.952,0,0,0,5.066-9.263,13.37,13.37,0,0,0-.283-6.591,10.491,10.491,0,0,0-.614-1.63l-.246-.543" transform="translate(654.259 3.57)" fill="#f0ead6"/>
    <path id="패스_33153" data-name="패스 33153" d="M183.908,19.3a10.281,10.281,0,0,1,1.3-.17,13.086,13.086,0,0,1,8.48,2.289A9.424,9.424,0,0,1,196.861,33.3a9.649,9.649,0,0,1-5.884,4.811,10.369,10.369,0,0,1-8.129-.771A11.866,11.866,0,0,1,177.4,30.9a12.046,12.046,0,0,1-.073-8.342,13.185,13.185,0,0,1,5.334-6.45,15.634,15.634,0,0,1,8.134-2.241,45.06,45.06,0,0,1,8.37.854,34.9,34.9,0,0,0,7.636.98,8.085,8.085,0,0,0,5.664-2.309,3.084,3.084,0,0,0,.839-3.468,1.392,1.392,0,0,0-1.017-.786,1.235,1.235,0,0,1,.75.873,2.694,2.694,0,0,1-1.3,2.706,7.059,7.059,0,0,1-4.9,1.149c-2.019-.17-4.259-1.043-6.938-1.8a39.039,39.039,0,0,0-9.02-1.765,18.975,18.975,0,0,0-10.657,2.255,16.962,16.962,0,0,0-7.6,8.473,16.325,16.325,0,0,0-.11,11.407,16.691,16.691,0,0,0,7.861,8.914,15.064,15.064,0,0,0,12.193.7,13,13,0,0,0,7.888-7.449,11.853,11.853,0,0,0-.283-9.1,11.538,11.538,0,0,0-5.407-5.611,13.445,13.445,0,0,0-5.837-1.484,11.787,11.787,0,0,0-3.776.47,10.168,10.168,0,0,0-1.238.422" transform="translate(766.07 35.168)" fill="#f0ead6"/>
    <path id="패스_33154" data-name="패스 33154" d="M201.236,16.989l-.587-.228a12.585,12.585,0,0,0-1.762-.567,16.84,16.84,0,0,0-7.132-.262,20.632,20.632,0,0,0-10.017,4.685,20.061,20.061,0,0,0-6.55,12.207,25.776,25.776,0,0,0,2.722,16.063,16.068,16.068,0,0,0,7,6.96,12.8,12.8,0,0,0,11.281.131,8.627,8.627,0,0,0,4.321-10.534,6.991,6.991,0,0,0-2.03-2.8c-.163-.136-.283-.252-.488-.407-.288-.194-.582-.373-.881-.548a8.854,8.854,0,0,0-1.725-.713,10.813,10.813,0,0,0-6.629.466,13.427,13.427,0,0,0-5.087,3.356,11.42,11.42,0,0,0-1.815,2.488l-.566,1.208-.514,1.416a18.475,18.475,0,0,0,.257,10.781,28.8,28.8,0,0,0,5.087,9.254,79.215,79.215,0,0,0,6.954,7.435c2.36,2.313,4.668,4.506,6.729,6.8a66.331,66.331,0,0,1,5.617,7.188c3.32,4.947,6.052,10.1,5.968,14.981-.063,4.9-3.294,9.511-7.667,10.316-4.237.752-8.926-2.071-8.921-5.563a5.509,5.509,0,0,1,2.056-4.2A4.951,4.951,0,0,1,201,105.78a5.144,5.144,0,0,1,2.947,1.969,4.492,4.492,0,0,1,.954,2.473,3.5,3.5,0,0,1-.587,2.168,3.663,3.663,0,0,0,.871-2.168,4.85,4.85,0,0,0-.708-2.774,5.516,5.516,0,0,0-3.251-2.575c-3.251-1.043-7.987,1.6-8.349,6.285a7.371,7.371,0,0,0,3.309,6.169,11.518,11.518,0,0,0,8.071,2.032,12.241,12.241,0,0,0,7.73-4.457,14.932,14.932,0,0,0,3.257-8.327c.383-6.3-2.6-12.144-5.931-17.4a79.1,79.1,0,0,0-12.6-14.967c-4.631-4.569-9.057-9.239-10.714-14.85-1.841-5.442-.572-11.839,4.652-13.662a5.7,5.7,0,0,1,3.341-.349,3.679,3.679,0,0,1,.593.213.506.506,0,0,0,.194.068c.126.082.309.247.462.364a2.587,2.587,0,0,1,.776,1,4.513,4.513,0,0,1-2.093,5.34c-1.961,1.135-4.825.98-7.127-.01a12.393,12.393,0,0,1-5.491-5.107,24.05,24.05,0,0,1-3.183-14.079A18.682,18.682,0,0,1,183.1,21.858a18.81,18.81,0,0,1,8.874-5.02,17.6,17.6,0,0,1,6.844-.4,12,12,0,0,1,1.8.383c.4.107.614.165.614.165" transform="translate(780.298 60.313)" fill="#f0ead6"/>
    <path id="패스_33155" data-name="패스 33155" d="M192.268,30.594a8.2,8.2,0,0,0,.451-1.145,9.42,9.42,0,0,0,.509-3.487,10.962,10.962,0,0,0-1.6-5.4,11.788,11.788,0,0,0-6.073-5,14.808,14.808,0,0,0-9.833-.262,13.1,13.1,0,0,0-8.066,7.289,12.125,12.125,0,0,0,.766,11.271,17.481,17.481,0,0,0,9.639,7.27,20.5,20.5,0,0,0,12.345-.1A17.714,17.714,0,0,0,199.568,34,15.447,15.447,0,0,0,202,24.148a31.167,31.167,0,0,0-1.9-8.337c-.834-2.473-1.773-4.549-1.956-6.416a5.828,5.828,0,0,1,1.243-4.53,3.149,3.149,0,0,1,2.926-1.2,1.286,1.286,0,0,1,.949.7,1.315,1.315,0,0,0-.855-.941,3.757,3.757,0,0,0-3.755.776,6.951,6.951,0,0,0-2.486,5.233c-.136,2.275.545,4.651,1.049,7.061a35.868,35.868,0,0,1,.928,7.74,12.847,12.847,0,0,1-2.418,7.512,13.98,13.98,0,0,1-6.986,4.932,15.067,15.067,0,0,1-9.02-.068,12.514,12.514,0,0,1-6.97-5.034,8.321,8.321,0,0,1-.839-7.512,9.413,9.413,0,0,1,5.2-5.446,12.068,12.068,0,0,1,7.447-.475,10.436,10.436,0,0,1,5.412,3.409,11.047,11.047,0,0,1,2.25,4.52,10.391,10.391,0,0,1,.226,3.322,7.9,7.9,0,0,1-.178,1.2" transform="translate(745.207 12.308)" fill="#f0ead6"/>
    <path id="패스_33156" data-name="패스 33156" d="M170.238,13.085a2.949,2.949,0,0,0,0,4.4,3.572,3.572,0,0,0,4.762,0,2.949,2.949,0,0,0,0-4.4,3.572,3.572,0,0,0-4.762,0" transform="translate(756.386 46.873)" fill="#f0ead6"/>
    <path id="패스_33157" data-name="패스 33157" d="M156.112,10.156a3.377,3.377,0,0,0-6.734,0,3.377,3.377,0,0,0,6.734,0" transform="translate(672.039 27.11)" fill="#f0ead6"/>
    <path id="패스_33158" data-name="패스 33158" d="M178.552,37.93a3.123,3.123,0,1,0-3.367-3.114,3.245,3.245,0,0,0,3.367,3.114" transform="translate(781.574 122.052)" fill="#f0ead6"/>
    <path id="패스_33159" data-name="패스 33159" d="M178.829,5.44a25.514,25.514,0,0,0,.844,5.8,12.135,12.135,0,0,1,8.868-5.325l.115-.1-.016.087a.544.544,0,0,0,.094-.015,1.109,1.109,0,0,1-.11.107,11.073,11.073,0,0,1-5.758,8.2,32.025,32.025,0,0,0,6.272.781c-1.411.262-2.281,1.518-3.351,2.41a7.464,7.464,0,0,1-5.6,1.557,5.683,5.683,0,0,1-3.561-1.727l-.01,0-.1-.1c-.037-.039-.073-.063-.11-.1l.005-.01a5.009,5.009,0,0,1-1.867-3.288,6.2,6.2,0,0,1,1.683-5.185c.965-.985,2.323-1.794,2.607-3.094" transform="translate(778.57 20.943)" fill="#f0ead6"/>
    <path id="패스_33160" data-name="패스 33160" d="M183.144,14.263a4.1,4.1,0,0,0-3.582,5.771,4.778,4.778,0,0,0,2.014,2.027,7.318,7.318,0,0,0,5.832.344A7.9,7.9,0,0,0,191.64,18.5a9.875,9.875,0,0,0,.923-5.354,11.693,11.693,0,0,0-1.851-5.228,16.785,16.785,0,0,0-9.073-6.659,17.764,17.764,0,0,0-2.926-.64c-.65-.082-.928-.087-1.416-.131-.488-.024-1.038-.024-1.552-.019a21.9,21.9,0,0,0-5.774,1,25.292,25.292,0,0,0-9.7,5.718c-.656.626-1.332,1.373-1.851,1.979-.608.742-1.164,1.465-1.668,2.2a32.772,32.772,0,0,0-2.633,4.612,42.427,42.427,0,0,0-3.147,9.768l-.975,4.971,4.8-2.478a6.184,6.184,0,0,1,3.3-.689,12.109,12.109,0,0,1,3.907.917,21.934,21.934,0,0,1,3.865,2c.545.344,1.311.888,1.919,1.295l1.883,1.343c5.04,3.671,9.886,8.075,15.948,11.223l1.138.577,1.175.533c.718.33,1.495.655,2.35.951a32.049,32.049,0,0,0,4.966,1.45,42.285,42.285,0,0,0,10.19.951,40.854,40.854,0,0,0,9.975-1.567,41.051,41.051,0,0,0,4.673-1.7,40.263,40.263,0,0,0,4.311-2.3A41.774,41.774,0,0,1,205.475,46.5a40.244,40.244,0,0,1-9.33-1.615,36.6,36.6,0,0,1-4.348-1.586,22.6,22.6,0,0,1-2.113-1l-1.017-.529-.991-.577c-5.26-3.182-9.807-7.488-14.931-11.538l-1.977-1.518c-.7-.514-1.243-.907-2.045-1.431a26.939,26.939,0,0,0-4.715-2.507,17.491,17.491,0,0,0-5.617-1.343,11.667,11.667,0,0,0-6.2,1.28l3.834,2.493a42.577,42.577,0,0,1,2.759-8.807,28.311,28.311,0,0,1,2.2-3.987c.43-.635.881-1.232,1.316-1.785.561-.669,1.007-1.164,1.552-1.712A20.462,20.462,0,0,1,171.5,5.451a17.259,17.259,0,0,1,4.468-.936l1.065-.044c.388.015.986.024,1.2.044a13.272,13.272,0,0,1,2.2.359A13.448,13.448,0,0,1,187.8,9.626a9.1,9.1,0,0,1,1.762,3.793,7.477,7.477,0,0,1-.315,4.166,5.295,5.295,0,0,1-7,3.274,3.137,3.137,0,0,1-2.134-3.361,3.493,3.493,0,0,1,3.026-3.235" transform="translate(674.654 1.779)" fill="#f0ead6"/>
    <path id="패스_33161" data-name="패스 33161" d="M210.446,56.327c-.2,1.678-1.925,2.692-3.5,2.8a3.469,3.469,0,0,1-3.64-1.974,4.537,4.537,0,0,1,.194-4.006,5.86,5.86,0,0,1,3.351-2.464,9.321,9.321,0,0,1,4.5-.291,10.593,10.593,0,0,1,4.1,1.63,12.458,12.458,0,0,1,5.145,6.8,10.567,10.567,0,0,1,.383,2.037c.026.2.031.752.047,1.106l-.042.994a13.775,13.775,0,0,1-1.017,4.122,18.749,18.749,0,0,1-5.281,7.071c-.593.5-1.128.921-1.851,1.436-.6.407-1.243.824-1.93,1.212a31.084,31.084,0,0,1-4.316,2.037,51.871,51.871,0,0,1-9.524,2.551l2.7,3.545a9.5,9.5,0,0,0,1.39-5.733,14.238,14.238,0,0,0-1.458-5.184,23.709,23.709,0,0,0-2.711-4.365c-.566-.742-.991-1.246-1.547-1.891L193.8,65.945c-4.384-4.733-9.041-8.943-12.482-13.808l-.624-.917-.566-.941a17.828,17.828,0,0,1-1.086-1.954,30.5,30.5,0,0,1-1.715-4.016,32.343,32.343,0,0,1-1.746-8.623,33.69,33.69,0,0,1,3.545-17.5,35.761,35.761,0,0,0-2.491,3.982,35.521,35.521,0,0,0-1.836,4.321,32.625,32.625,0,0,0-1.694,9.22,30.416,30.416,0,0,0,.178,4.733,31.415,31.415,0,0,0,.85,4.685,26.316,26.316,0,0,0,1.568,4.593A22.2,22.2,0,0,0,176.73,51.9l.572,1.086.624,1.048c3.409,5.611,8.171,10.083,12.146,14.744l1.453,1.746c.44.558,1.023,1.266,1.4,1.77a19.567,19.567,0,0,1,2.166,3.569,9.944,9.944,0,0,1,.991,3.618,5.031,5.031,0,0,1-.745,3.051l-2.68,4.442,5.376-.9a51.96,51.96,0,0,0,10.568-2.915,37.391,37.391,0,0,0,4.987-2.435c.792-.461,1.579-.975,2.376-1.537.656-.48,1.463-1.111,2.14-1.712a22.894,22.894,0,0,0,6.188-8.967,17.658,17.658,0,0,0,1.086-5.335c.005-.48.005-.994-.021-1.44-.047-.451-.052-.713-.142-1.309a14.509,14.509,0,0,0-.692-2.706,15.957,15.957,0,0,0-7.206-8.39,14.151,14.151,0,0,0-5.653-1.707,12.34,12.34,0,0,0-5.79.849,7.9,7.9,0,0,0-4.227,3.919,5.835,5.835,0,0,0,.372,5.383,4.848,4.848,0,0,0,2.187,1.872,5,5,0,0,0,2.884.209c1.815-.378,3.461-1.828,3.362-3.526" transform="translate(772.64 70.021)" fill="#f0ead6"/>
    <path id="패스_33162" data-name="패스 33162" d="M279.135,105.867h-4.856V4.491H160.412V0H279.135Z" transform="translate(718.871 -0.002)" fill="#f0ead6"/>
    <rect id="사각형_50521" data-name="사각형 50521" width="612.783" height="4.491" transform="translate(169.88)" fill="#f0ead6"/>
    <path id="패스_33163" data-name="패스 33163" d="M256.014,279.658s.063-.194.178-.567a9.775,9.775,0,0,0,.414-1.664,13.936,13.936,0,0,0-.43-6.334,16.916,16.916,0,0,0-5.428-8.2,21.94,21.94,0,0,0-12.209-4.6,29.627,29.627,0,0,0-15.23,2.944,12.373,12.373,0,0,0-5.528,5.073c-1.07,2.129-1.232,4.777-.01,6.591a5.288,5.288,0,0,0,5.779,1.93,2.782,2.782,0,0,0,1.086-.718c.126-.141.3-.31.393-.422a.427.427,0,0,1,.073-.18,3.174,3.174,0,0,0,.231-.553,4.54,4.54,0,0,0-.383-3.089c-1.967-4.826-8.884-6-14.774-4.3-6.068,1.533-11.123,5.626-16.064,9.9a83.8,83.8,0,0,1-16.19,11.649c-5.68,3.075-12,5.834-18.822,5.48a17.817,17.817,0,0,1-9-3.007,11.114,11.114,0,0,1-4.82-7.149,9.5,9.5,0,0,1,2.2-7.459,8.406,8.406,0,0,1,6.671-3.06c5.071.33,7.93,4.709,6.8,7.716a5.337,5.337,0,0,1-2.785,3.007,5.983,5.983,0,0,1-2.995.655,4.228,4.228,0,0,1-2.344-.805,4.181,4.181,0,0,0,2.344.543,5.372,5.372,0,0,0,2.675-.883,4.773,4.773,0,0,0,2.124-2.726,4.1,4.1,0,0,0-1.2-3.826,6.369,6.369,0,0,0-4.547-1.906c-3.776,0-6.828,4.331-6.015,8.25.871,4.04,5.858,7.027,11.16,7.09,5.281.078,10.856-2.449,16.205-5.519a71.378,71.378,0,0,0,7.772-5.194c2.486-1.906,4.856-4.035,7.353-6.218a81.838,81.838,0,0,1,8.045-6.426,32.867,32.867,0,0,1,10.012-4.7,23.165,23.165,0,0,1,11.658-.238l1.537.475,1.306.519a12.912,12.912,0,0,1,6.325,6.382,8.665,8.665,0,0,1,.5,6.125,7.428,7.428,0,0,1-.766,1.6c-.189.277-.388.553-.6.815-.168.194-.294.3-.441.456a7.677,7.677,0,0,1-3.031,1.872,10.021,10.021,0,0,1-11.4-3.992,10.317,10.317,0,0,1,.147-10.432,16.336,16.336,0,0,1,7.52-6.47,32.067,32.067,0,0,1,17.38-2.517,23.005,23.005,0,0,1,13.205,6.053,17.951,17.951,0,0,1,5.066,9.263,13.369,13.369,0,0,1-.283,6.591,10.489,10.489,0,0,1-.614,1.63l-.246.543" transform="translate(654.259 982.863)" fill="#f0ead6"/>
    <path id="패스_33164" data-name="패스 33164" d="M183.908,271.517a10.3,10.3,0,0,0,1.3.17,13.086,13.086,0,0,0,8.48-2.289,9.282,9.282,0,0,0-2.711-16.7,10.368,10.368,0,0,0-8.129.771,11.865,11.865,0,0,0-5.449,6.445,12.046,12.046,0,0,0-.073,8.342,13.184,13.184,0,0,0,5.334,6.45,15.634,15.634,0,0,0,8.134,2.241,45.064,45.064,0,0,0,8.37-.854,34.9,34.9,0,0,1,7.636-.98,8.085,8.085,0,0,1,5.664,2.309,3.085,3.085,0,0,1,.839,3.468,1.391,1.391,0,0,1-1.017.786,1.234,1.234,0,0,0,.75-.873,2.694,2.694,0,0,0-1.3-2.706,7.059,7.059,0,0,0-4.9-1.149c-2.019.17-4.259,1.043-6.938,1.8a39.039,39.039,0,0,1-9.02,1.765,18.974,18.974,0,0,1-10.657-2.255,16.962,16.962,0,0,1-7.6-8.473,16.325,16.325,0,0,1-.11-11.407,16.69,16.69,0,0,1,7.861-8.914,15.064,15.064,0,0,1,12.193-.7,13,13,0,0,1,7.888,7.449,11.853,11.853,0,0,1-.283,9.1,11.515,11.515,0,0,1-5.407,5.611,13.444,13.444,0,0,1-5.837,1.484,11.789,11.789,0,0,1-3.776-.47,10.176,10.176,0,0,1-1.238-.422" transform="translate(766.07 954.02)" fill="#f0ead6"/>
    <path id="패스_33165" data-name="패스 33165" d="M201.236,329.314l-.587.228a12.593,12.593,0,0,1-1.762.567,16.837,16.837,0,0,1-7.132.262,20.631,20.631,0,0,1-10.017-4.685,20.061,20.061,0,0,1-6.55-12.207,25.776,25.776,0,0,1,2.722-16.063,16.093,16.093,0,0,1,7-6.96,12.8,12.8,0,0,1,11.281-.131,8.627,8.627,0,0,1,4.321,10.534,6.992,6.992,0,0,1-2.03,2.8c-.163.136-.283.252-.488.407-.288.194-.582.373-.881.548a8.861,8.861,0,0,1-1.725.713,10.813,10.813,0,0,1-6.629-.466,13.426,13.426,0,0,1-5.087-3.356,11.418,11.418,0,0,1-1.815-2.488l-.566-1.2-.514-1.421a18.475,18.475,0,0,1,.257-10.781,28.715,28.715,0,0,1,5.092-9.254,78.477,78.477,0,0,1,6.949-7.435c2.36-2.313,4.668-4.505,6.729-6.8a66.332,66.332,0,0,0,5.617-7.187c3.32-4.947,6.052-10.1,5.968-14.981-.063-4.9-3.294-9.511-7.667-10.316-4.237-.752-8.926,2.071-8.921,5.563a5.509,5.509,0,0,0,2.056,4.2A4.951,4.951,0,0,0,201,240.523a5.144,5.144,0,0,0,2.947-1.969,4.492,4.492,0,0,0,.954-2.474,3.5,3.5,0,0,0-.587-2.168,3.663,3.663,0,0,1,.871,2.168,4.85,4.85,0,0,1-.708,2.774,5.516,5.516,0,0,1-3.251,2.575c-3.251,1.043-7.987-1.6-8.349-6.285a7.371,7.371,0,0,1,3.309-6.169,11.518,11.518,0,0,1,8.071-2.032,12.241,12.241,0,0,1,7.73,4.457,14.931,14.931,0,0,1,3.257,8.327c.383,6.3-2.6,12.144-5.931,17.4a79.1,79.1,0,0,1-12.6,14.967c-4.631,4.569-9.057,9.239-10.714,14.85-1.841,5.442-.572,11.839,4.652,13.662a5.694,5.694,0,0,0,3.341.349,3.68,3.68,0,0,0,.593-.213.506.506,0,0,1,.194-.068c.126-.082.309-.247.462-.364a2.587,2.587,0,0,0,.776-1,4.513,4.513,0,0,0-2.093-5.34c-1.961-1.13-4.825-.98-7.127.01a12.393,12.393,0,0,0-5.491,5.107,24.05,24.05,0,0,0-3.183,14.079,17.9,17.9,0,0,0,13.851,16.305,17.606,17.606,0,0,0,6.844.4,12,12,0,0,0,1.8-.383c.4-.107.614-.165.614-.165" transform="translate(780.298 873.383)" fill="#f0ead6"/>
    <path id="패스_33166" data-name="패스 33166" d="M192.268,264.16a8.2,8.2,0,0,1,.451,1.145,9.42,9.42,0,0,1,.509,3.487,10.962,10.962,0,0,1-1.6,5.4,11.789,11.789,0,0,1-6.073,5,14.808,14.808,0,0,1-9.833.262,13.1,13.1,0,0,1-8.066-7.289,12.125,12.125,0,0,1,.766-11.271,17.481,17.481,0,0,1,9.639-7.27,20.5,20.5,0,0,1,12.345.1,17.714,17.714,0,0,1,9.167,7.027A15.446,15.446,0,0,1,202,270.605a31.167,31.167,0,0,1-1.9,8.337c-.834,2.473-1.773,4.549-1.956,6.416a5.822,5.822,0,0,0,1.243,4.53,3.149,3.149,0,0,0,2.926,1.2,1.286,1.286,0,0,0,.949-.7,1.315,1.315,0,0,1-.855.941,3.757,3.757,0,0,1-3.755-.776,6.951,6.951,0,0,1-2.486-5.233c-.136-2.275.545-4.651,1.049-7.061a35.869,35.869,0,0,0,.928-7.74,12.846,12.846,0,0,0-2.418-7.512,13.981,13.981,0,0,0-6.986-4.932,15.067,15.067,0,0,0-9.02.068,12.515,12.515,0,0,0-6.97,5.034,8.321,8.321,0,0,0-.839,7.512,9.414,9.414,0,0,0,5.2,5.447,12.07,12.07,0,0,0,7.447.475,10.436,10.436,0,0,0,5.412-3.41,11.048,11.048,0,0,0,2.25-4.52,10.391,10.391,0,0,0,.226-3.322,7.894,7.894,0,0,0-.178-1.2" transform="translate(745.207 972.938)" fill="#f0ead6"/>
    <path id="패스_33167" data-name="패스 33167" d="M170.238,255.778a2.949,2.949,0,0,1,0-4.4,3.572,3.572,0,0,1,4.762,0,2.949,2.949,0,0,1,0,4.4,3.561,3.561,0,0,1-4.762,0" transform="translate(756.386 964.258)" fill="#f0ead6"/>
    <path id="패스_33168" data-name="패스 33168" d="M156.112,258.711a3.377,3.377,0,1,1-3.367-3.114,3.248,3.248,0,0,1,3.367,3.114" transform="translate(672.039 984.018)" fill="#f0ead6"/>
    <path id="패스_33169" data-name="패스 33169" d="M178.552,230.937a3.123,3.123,0,1,1-3.367,3.114,3.245,3.245,0,0,1,3.367-3.114" transform="translate(781.574 889.075)" fill="#f0ead6"/>
    <path id="패스_33170" data-name="패스 33170" d="M178.829,269.244a25.514,25.514,0,0,1,.844-5.8,12.135,12.135,0,0,0,8.868,5.325l.115.1-.016-.087a.532.532,0,0,1,.094.015,1.076,1.076,0,0,0-.11-.107,11.081,11.081,0,0,0-5.758-8.2,32.017,32.017,0,0,1,6.272-.781c-1.411-.262-2.281-1.518-3.351-2.41a7.463,7.463,0,0,0-5.6-1.557,5.707,5.707,0,0,0-3.561,1.727l-.01,0-.1.1c-.037.039-.073.063-.11.1l.005.01a5.009,5.009,0,0,0-1.867,3.288,6.2,6.2,0,0,0,1.683,5.184c.965.985,2.323,1.795,2.607,3.094" transform="translate(778.57 984.373)" fill="#f0ead6"/>
    <path id="패스_33171" data-name="패스 33171" d="M183.144,288.038a4.1,4.1,0,0,1-3.582-5.771,4.8,4.8,0,0,1,2.014-2.027,7.318,7.318,0,0,1,5.832-.344,7.9,7.9,0,0,1,4.232,3.909,9.875,9.875,0,0,1,.923,5.354,11.692,11.692,0,0,1-1.851,5.228,16.785,16.785,0,0,1-9.073,6.659,17.762,17.762,0,0,1-2.926.64c-.65.082-.928.087-1.416.131-.488.024-1.038.024-1.552.019a21.906,21.906,0,0,1-5.774-1,25.292,25.292,0,0,1-9.7-5.718c-.656-.626-1.332-1.373-1.851-1.979-.608-.742-1.164-1.469-1.668-2.2a32.774,32.774,0,0,1-2.633-4.612,42.425,42.425,0,0,1-3.147-9.768l-.975-4.971,4.8,2.478a6.183,6.183,0,0,0,3.3.689,12.11,12.11,0,0,0,3.907-.917,21.926,21.926,0,0,0,3.865-2c.545-.344,1.311-.888,1.919-1.295l1.883-1.339c5.04-3.676,9.886-8.08,15.948-11.227l1.138-.577,1.175-.534c.718-.33,1.495-.655,2.35-.951a32.052,32.052,0,0,1,4.966-1.45,42.283,42.283,0,0,1,10.19-.951,39.185,39.185,0,0,1,14.648,3.264,40.26,40.26,0,0,1,4.311,2.3,41.772,41.772,0,0,0-18.927-3.278,40.24,40.24,0,0,0-9.33,1.615,36.57,36.57,0,0,0-4.348,1.586,22.568,22.568,0,0,0-2.113,1l-1.017.529-.991.577c-5.26,3.181-9.807,7.488-14.931,11.538l-1.977,1.518c-.7.514-1.243.9-2.045,1.431a26.944,26.944,0,0,1-4.715,2.507,17.491,17.491,0,0,1-5.617,1.343,11.667,11.667,0,0,1-6.2-1.28l3.834-2.493a42.576,42.576,0,0,0,2.759,8.807,28.3,28.3,0,0,0,2.2,3.987c.43.635.881,1.232,1.316,1.785.561.669,1.007,1.164,1.552,1.712a20.463,20.463,0,0,0,7.646,4.884,17.266,17.266,0,0,0,4.468.936l1.065.044c.388-.015.986-.024,1.2-.044a13.269,13.269,0,0,0,2.2-.359,13.448,13.448,0,0,0,7.363-4.753,9.1,9.1,0,0,0,1.762-3.792,7.477,7.477,0,0,0-.315-4.166,5.294,5.294,0,0,0-7-3.274,3.137,3.137,0,0,0-2.134,3.361,3.493,3.493,0,0,0,3.026,3.235" transform="translate(674.654 975.914)" fill="#f0ead6"/>
    <path id="패스_33172" data-name="패스 33172" d="M210.446,262.2c-.2-1.678-1.925-2.692-3.5-2.8a3.463,3.463,0,0,0-3.64,1.974,4.527,4.527,0,0,0,.194,4,5.838,5.838,0,0,0,3.351,2.464,9.262,9.262,0,0,0,4.5.291,10.585,10.585,0,0,0,4.1-1.625A12.452,12.452,0,0,0,220.6,259.7a10.521,10.521,0,0,0,.383-2.032c.026-.2.031-.752.047-1.111l-.042-.989a13.806,13.806,0,0,0-1.017-4.127,18.7,18.7,0,0,0-5.281-7.066c-.593-.509-1.128-.922-1.851-1.44-.6-.4-1.243-.82-1.93-1.213a31.652,31.652,0,0,0-4.316-2.037,51.86,51.86,0,0,0-9.524-2.551l2.7-3.545a9.5,9.5,0,0,1,1.39,5.733,14.263,14.263,0,0,1-1.458,5.189,23.672,23.672,0,0,1-2.711,4.36c-.566.742-.991,1.246-1.547,1.891l-1.641,1.828c-4.384,4.733-9.041,8.938-12.482,13.8l-.624.917-.566.941a18.29,18.29,0,0,0-1.086,1.955,30.494,30.494,0,0,0-1.715,4.016,32.381,32.381,0,0,0-1.746,8.623,33.717,33.717,0,0,0,3.545,17.5,35.817,35.817,0,0,1-2.491-3.987,34.878,34.878,0,0,1-1.836-4.321,32.594,32.594,0,0,1-1.694-9.22,30.332,30.332,0,0,1,.178-4.729,31.366,31.366,0,0,1,.85-4.69A26.318,26.318,0,0,1,175.7,268.8a22.108,22.108,0,0,1,1.028-2.173l.577-1.086.624-1.052c3.4-5.606,8.166-10.083,12.141-14.744l1.453-1.741c.44-.563,1.023-1.271,1.4-1.775a19.408,19.408,0,0,0,2.166-3.569,9.9,9.9,0,0,0,.991-3.613,5.038,5.038,0,0,0-.745-3.055l-2.68-4.442,5.376.9a51.944,51.944,0,0,1,10.568,2.91,37.412,37.412,0,0,1,4.987,2.435c.792.461,1.579.98,2.376,1.542.656.475,1.463,1.106,2.14,1.707a22.909,22.909,0,0,1,6.188,8.972,17.63,17.63,0,0,1,1.086,5.335c.005.48.005.989-.021,1.44-.047.446-.052.708-.142,1.3a14.416,14.416,0,0,1-.692,2.706,15.939,15.939,0,0,1-7.206,8.39,14.156,14.156,0,0,1-5.653,1.712,12.4,12.4,0,0,1-5.79-.854,7.9,7.9,0,0,1-4.227-3.914,5.845,5.845,0,0,1,.372-5.388,4.838,4.838,0,0,1,2.187-1.867,4.961,4.961,0,0,1,2.884-.213c1.815.378,3.461,1.833,3.362,3.526" transform="translate(772.64 891.447)" fill="#f0ead6"/>
    <path id="패스_33173" data-name="패스 33173" d="M279.135,347.964H160.412v-4.491H274.279V242.1h4.856Z" transform="translate(718.871 932.036)" fill="#f0ead6"/>
    <path id="패스_33174" data-name="패스 33174" d="M17.887,279.658s-.058-.194-.178-.567a9.377,9.377,0,0,1-.409-1.664,13.846,13.846,0,0,1,.425-6.334,16.953,16.953,0,0,1,5.428-8.2,21.955,21.955,0,0,1,12.209-4.6,29.627,29.627,0,0,1,15.23,2.944,12.374,12.374,0,0,1,5.528,5.073c1.07,2.129,1.232,4.777.01,6.591a5.288,5.288,0,0,1-5.779,1.93,2.782,2.782,0,0,1-1.086-.718c-.126-.141-.3-.31-.388-.422a.517.517,0,0,0-.079-.18,3.636,3.636,0,0,1-.231-.553,4.54,4.54,0,0,1,.383-3.089c1.967-4.826,8.884-6,14.773-4.3,6.073,1.533,11.123,5.626,16.064,9.9a83.8,83.8,0,0,0,16.189,11.649c5.68,3.075,12,5.834,18.822,5.48a17.817,17.817,0,0,0,9-3.007,11.1,11.1,0,0,0,4.82-7.149,9.5,9.5,0,0,0-2.2-7.459,8.406,8.406,0,0,0-6.671-3.06c-5.071.33-7.93,4.709-6.8,7.716a5.338,5.338,0,0,0,2.785,3.007,5.99,5.99,0,0,0,3,.655,4.281,4.281,0,0,0,2.344-.805,4.233,4.233,0,0,1-2.349.543,5.388,5.388,0,0,1-2.675-.883,4.773,4.773,0,0,1-2.124-2.726,4.1,4.1,0,0,1,1.2-3.826,6.369,6.369,0,0,1,4.547-1.906c3.776,0,6.828,4.331,6.015,8.25-.871,4.04-5.853,7.027-11.16,7.09-5.281.078-10.856-2.449-16.205-5.519a71.382,71.382,0,0,1-7.772-5.194c-2.486-1.906-4.856-4.035-7.353-6.218a81.845,81.845,0,0,0-8.045-6.426,32.867,32.867,0,0,0-10.012-4.7,23.165,23.165,0,0,0-11.658-.238l-1.537.475-1.306.519a12.912,12.912,0,0,0-6.325,6.382,8.664,8.664,0,0,0-.5,6.125,7.429,7.429,0,0,0,.766,1.6c.189.277.388.553.6.815.168.194.294.3.441.456a7.678,7.678,0,0,0,3.031,1.872A10.021,10.021,0,0,0,60.063,275a10.3,10.3,0,0,0-.147-10.432,16.336,16.336,0,0,0-7.52-6.47,32.067,32.067,0,0,0-17.38-2.517,23.005,23.005,0,0,0-13.205,6.053,17.952,17.952,0,0,0-5.066,9.263,13.369,13.369,0,0,0,.283,6.591,10.491,10.491,0,0,0,.614,1.63l.246.543" transform="translate(27.866 982.863)" fill="#f0ead6"/>
    <path id="패스_33175" data-name="패스 33175" d="M33.145,271.517a10.294,10.294,0,0,1-1.3.17,13.086,13.086,0,0,1-8.48-2.289,9.279,9.279,0,0,1,2.711-16.7,10.368,10.368,0,0,1,8.129.771,11.834,11.834,0,0,1,5.444,6.445,12.016,12.016,0,0,1,.079,8.342,13.184,13.184,0,0,1-5.334,6.45,15.648,15.648,0,0,1-8.134,2.241,45.065,45.065,0,0,1-8.37-.854,34.9,34.9,0,0,0-7.636-.98,8.075,8.075,0,0,0-5.664,2.309,3.085,3.085,0,0,0-.839,3.468,1.392,1.392,0,0,0,1.017.786,1.246,1.246,0,0,1-.755-.873A2.709,2.709,0,0,1,5.318,278.1a7.059,7.059,0,0,1,4.9-1.149c2.019.17,4.258,1.043,6.938,1.8a39.039,39.039,0,0,0,9.02,1.765,18.974,18.974,0,0,0,10.657-2.255,16.962,16.962,0,0,0,7.6-8.473,16.326,16.326,0,0,0,.11-11.407,16.69,16.69,0,0,0-7.861-8.914,15.063,15.063,0,0,0-12.193-.7,13,13,0,0,0-7.888,7.449,11.852,11.852,0,0,0,.283,9.1,11.529,11.529,0,0,0,5.4,5.611,13.482,13.482,0,0,0,5.842,1.484,11.789,11.789,0,0,0,3.776-.47,10.176,10.176,0,0,0,1.238-.422" transform="translate(-27.091 954.02)" fill="#f0ead6"/>
    <path id="패스_33176" data-name="패스 33176" d="M14.506,329.314l.587.228a12.6,12.6,0,0,0,1.762.567,16.837,16.837,0,0,0,7.132.262A20.631,20.631,0,0,0,34,325.687a20.061,20.061,0,0,0,6.55-12.207,25.776,25.776,0,0,0-2.722-16.063,16.093,16.093,0,0,0-7-6.96,12.8,12.8,0,0,0-11.281-.131,8.627,8.627,0,0,0-4.321,10.534,6.991,6.991,0,0,0,2.03,2.8c.163.136.283.252.488.407.288.194.582.373.881.548a8.86,8.86,0,0,0,1.725.713,10.813,10.813,0,0,0,6.629-.466,13.426,13.426,0,0,0,5.087-3.356,11.416,11.416,0,0,0,1.815-2.488l.566-1.2.514-1.421a18.476,18.476,0,0,0-.257-10.781,28.715,28.715,0,0,0-5.092-9.254,78.468,78.468,0,0,0-6.949-7.435c-2.36-2.313-4.668-4.505-6.729-6.8a66.339,66.339,0,0,1-5.617-7.187c-3.32-4.947-6.052-10.1-5.968-14.981.063-4.9,3.293-9.511,7.667-10.316,4.237-.752,8.926,2.071,8.921,5.563a5.51,5.51,0,0,1-2.056,4.2,4.951,4.951,0,0,1-4.143,1.116,5.144,5.144,0,0,1-2.947-1.969,4.492,4.492,0,0,1-.954-2.474,3.5,3.5,0,0,1,.587-2.168,3.662,3.662,0,0,0-.871,2.168,4.85,4.85,0,0,0,.708,2.774,5.516,5.516,0,0,0,3.252,2.575c3.252,1.043,7.987-1.6,8.349-6.285a7.372,7.372,0,0,0-3.309-6.169,11.518,11.518,0,0,0-8.071-2.032,12.241,12.241,0,0,0-7.73,4.457A14.931,14.931,0,0,0,.5,239.728c-.383,6.3,2.6,12.144,5.931,17.4a79.1,79.1,0,0,0,12.6,14.967c4.631,4.569,9.057,9.239,10.714,14.85,1.841,5.442.572,11.839-4.652,13.662a5.694,5.694,0,0,1-3.341.349,3.677,3.677,0,0,1-.593-.213.507.507,0,0,0-.194-.068c-.126-.082-.309-.247-.462-.364a2.586,2.586,0,0,1-.776-1,4.513,4.513,0,0,1,2.093-5.34c1.961-1.13,4.825-.98,7.127.01a12.393,12.393,0,0,1,5.491,5.107,24.05,24.05,0,0,1,3.183,14.079,18.682,18.682,0,0,1-4.977,11.286,18.81,18.81,0,0,1-8.874,5.02,17.606,17.606,0,0,1-6.844.4,12.005,12.005,0,0,1-1.8-.383c-.4-.107-.614-.165-.614-.165" transform="translate(-40.013 873.383)" fill="#f0ead6"/>
    <path id="패스_33177" data-name="패스 33177" d="M20.44,264.16a8.539,8.539,0,0,0-.456,1.145,9.421,9.421,0,0,0-.509,3.487,11.018,11.018,0,0,0,1.6,5.4,11.789,11.789,0,0,0,6.073,5,14.824,14.824,0,0,0,9.839.262,13.106,13.106,0,0,0,8.061-7.289,12.124,12.124,0,0,0-.76-11.271,17.475,17.475,0,0,0-9.644-7.27,20.485,20.485,0,0,0-12.34.1,17.672,17.672,0,0,0-9.167,7.027,15.489,15.489,0,0,0-2.439,9.855,31.56,31.56,0,0,0,1.909,8.337c.829,2.473,1.767,4.549,1.956,6.416a5.843,5.843,0,0,1-1.243,4.53,3.157,3.157,0,0,1-2.932,1.2,1.268,1.268,0,0,1-.944-.7,1.3,1.3,0,0,0,.85.941,3.754,3.754,0,0,0,3.755-.776,6.991,6.991,0,0,0,2.491-5.233c.131-2.275-.551-4.651-1.059-7.061a35.87,35.87,0,0,1-.918-7.74,12.846,12.846,0,0,1,2.418-7.512,13.957,13.957,0,0,1,6.986-4.932,15.067,15.067,0,0,1,9.02.068,12.532,12.532,0,0,1,6.97,5.034,8.319,8.319,0,0,1,.834,7.512,9.4,9.4,0,0,1-5.2,5.447,12.082,12.082,0,0,1-7.452.475,10.484,10.484,0,0,1-5.407-3.41,11.031,11.031,0,0,1-2.245-4.52,10.273,10.273,0,0,1-.231-3.322,8.22,8.22,0,0,1,.184-1.2" transform="translate(-1.884 972.938)" fill="#f0ead6"/>
    <path id="패스_33178" data-name="패스 33178" d="M18.266,255.778a2.949,2.949,0,0,0,0-4.4,3.572,3.572,0,0,0-4.762,0,2.949,2.949,0,0,0,0,4.4,3.561,3.561,0,0,0,4.762,0" transform="translate(11.142 964.258)" fill="#f0ead6"/>
    <path id="패스_33179" data-name="패스 33179" d="M32.39,258.711a3.377,3.377,0,1,0,3.367-3.114,3.248,3.248,0,0,0-3.367,3.114" transform="translate(95.491 984.018)" fill="#f0ead6"/>
    <path id="패스_33180" data-name="패스 33180" d="M9.949,230.937a3.123,3.123,0,1,0,0,6.227,3.123,3.123,0,1,0,0-6.227" transform="translate(-14.048 889.075)" fill="#f0ead6"/>
    <path id="패스_33181" data-name="패스 33181" d="M16.09,269.244a25.52,25.52,0,0,0-.844-5.8,12.135,12.135,0,0,1-8.868,5.325l-.115.1.01-.087-.089.015.11-.107a11.081,11.081,0,0,1,5.758-8.2,32.016,32.016,0,0,0-6.272-.781c1.411-.262,2.281-1.518,3.351-2.41a7.463,7.463,0,0,1,5.6-1.557,5.706,5.706,0,0,1,3.561,1.727l.01,0a.988.988,0,0,0,.1.1,1.014,1.014,0,0,0,.11.1l-.005.01a5.008,5.008,0,0,1,1.867,3.288,6.2,6.2,0,0,1-1.683,5.184c-.965.985-2.323,1.795-2.606,3.094" transform="translate(-17.456 984.373)" fill="#f0ead6"/>
    <path id="패스_33182" data-name="패스 33182" d="M60.127,288.038a3.985,3.985,0,0,0,3.818-3.109,3.921,3.921,0,0,0-.236-2.663,4.776,4.776,0,0,0-2.014-2.027,7.318,7.318,0,0,0-5.832-.344,7.9,7.9,0,0,0-4.232,3.909,9.875,9.875,0,0,0-.923,5.354,11.692,11.692,0,0,0,1.851,5.228,16.785,16.785,0,0,0,9.073,6.659,17.762,17.762,0,0,0,2.926.64c.65.082.928.087,1.416.131.488.024,1.038.024,1.552.019a21.9,21.9,0,0,0,5.774-1,25.293,25.293,0,0,0,9.7-5.718c.656-.626,1.332-1.373,1.851-1.979.608-.742,1.164-1.469,1.668-2.2a32.772,32.772,0,0,0,2.633-4.612,42.426,42.426,0,0,0,3.147-9.768l.975-4.971-4.8,2.478a6.184,6.184,0,0,1-3.3.689,12.109,12.109,0,0,1-3.907-.917,21.924,21.924,0,0,1-3.865-2c-.545-.344-1.311-.888-1.919-1.295l-1.883-1.339c-5.04-3.676-9.886-8.08-15.948-11.227l-1.138-.577-1.175-.534c-.718-.33-1.495-.655-2.349-.951a32.054,32.054,0,0,0-4.966-1.45,42.282,42.282,0,0,0-10.19-.951A39.185,39.185,0,0,0,23.18,256.78a40.253,40.253,0,0,0-4.311,2.3A41.772,41.772,0,0,1,37.8,255.806a40.241,40.241,0,0,1,9.33,1.615,36.564,36.564,0,0,1,4.348,1.586,21.958,21.958,0,0,1,2.113,1l1.017.529.991.577c5.26,3.181,9.812,7.488,14.931,11.538l1.977,1.518c.7.514,1.243.9,2.045,1.431a26.94,26.94,0,0,0,4.715,2.507,17.49,17.49,0,0,0,5.617,1.343,11.667,11.667,0,0,0,6.2-1.28l-3.834-2.493a42.576,42.576,0,0,1-2.759,8.807,28.306,28.306,0,0,1-2.2,3.987c-.43.635-.881,1.232-1.316,1.785-.561.669-1.007,1.164-1.552,1.712a20.422,20.422,0,0,1-7.646,4.884,17.266,17.266,0,0,1-4.468.936l-1.065.044c-.388-.015-.986-.024-1.2-.044a13.269,13.269,0,0,1-2.2-.359,13.448,13.448,0,0,1-7.363-4.753,9.1,9.1,0,0,1-1.762-3.792,7.477,7.477,0,0,1,.315-4.166,5.294,5.294,0,0,1,7-3.274,3.137,3.137,0,0,1,2.134,3.361,3.493,3.493,0,0,1-3.026,3.235" transform="translate(38.103 975.914)" fill="#f0ead6"/>
    <path id="패스_33183" data-name="패스 33183" d="M14.926,262.2c.2-1.678,1.925-2.692,3.5-2.8a3.462,3.462,0,0,1,3.64,1.974,4.526,4.526,0,0,1-.194,4,5.839,5.839,0,0,1-3.351,2.464,9.263,9.263,0,0,1-4.5.291,10.585,10.585,0,0,1-4.1-1.625A12.451,12.451,0,0,1,4.767,259.7a10.523,10.523,0,0,1-.383-2.032c-.026-.2-.031-.752-.047-1.111l.047-.989A13.64,13.64,0,0,1,5.4,251.437a18.751,18.751,0,0,1,5.281-7.066c.593-.509,1.128-.922,1.851-1.44.6-.4,1.243-.82,1.93-1.213a31.649,31.649,0,0,1,4.316-2.037A51.86,51.86,0,0,1,28.3,237.13l-2.7-3.545a9.54,9.54,0,0,0-1.39,5.733,14.261,14.261,0,0,0,1.458,5.189,23.671,23.671,0,0,0,2.711,4.36c.566.742,1,1.246,1.547,1.891l1.642,1.828c4.39,4.733,9.041,8.938,12.482,13.8l.624.917.572.941a19.172,19.172,0,0,1,1.08,1.955,30.49,30.49,0,0,1,1.715,4.016,32.177,32.177,0,0,1,1.746,8.623,33.665,33.665,0,0,1-3.545,17.5,35.055,35.055,0,0,0,2.491-3.987,34.884,34.884,0,0,0,1.836-4.321,32.413,32.413,0,0,0,1.694-9.22,30.327,30.327,0,0,0-.178-4.729,31.374,31.374,0,0,0-.85-4.69A26.328,26.328,0,0,0,49.67,268.8a20.977,20.977,0,0,0-1.028-2.173l-.566-1.086-.629-1.052c-3.4-5.606-8.166-10.083-12.146-14.744l-1.453-1.741c-.441-.563-1.017-1.271-1.4-1.775a19.4,19.4,0,0,1-2.166-3.569,9.9,9.9,0,0,1-.991-3.613A5.038,5.038,0,0,1,30.04,236l2.68-4.442-5.376.9a51.943,51.943,0,0,0-10.567,2.91,37.415,37.415,0,0,0-4.987,2.435c-.792.461-1.579.98-2.376,1.542-.656.475-1.463,1.106-2.14,1.707a22.91,22.91,0,0,0-6.188,8.972A17.791,17.791,0,0,0,0,255.356c0,.48,0,.989.021,1.44.047.446.052.708.142,1.3a14.416,14.416,0,0,0,.692,2.706,15.939,15.939,0,0,0,7.206,8.39,14.156,14.156,0,0,0,5.653,1.712,12.4,12.4,0,0,0,5.79-.854,7.886,7.886,0,0,0,4.227-3.914,5.845,5.845,0,0,0-.372-5.388,4.838,4.838,0,0,0-2.187-1.867,4.944,4.944,0,0,0-2.879-.213c-1.82.378-3.467,1.833-3.367,3.526" transform="translate(-41.985 891.447)" fill="#f0ead6"/>
    <path id="패스_33184" data-name="패스 33184" d="M118.725,347.964H0V242.1H4.858V343.473H118.725Z" transform="translate(-41.979 932.036)" fill="#f0ead6"/>
    <rect id="사각형_50522" data-name="사각형 50522" width="615.792" height="4.491" transform="translate(169.725 1275.508)" fill="#f0ead6"/>
    <rect id="사각형_50523" data-name="사각형 50523" width="4.856" height="887.831" transform="translate(993.15 193.785)" fill="#f0ead6"/>
    <rect id="사각형_50524" data-name="사각형 50524" width="4.856" height="887.831" transform="translate(-41.979 193.785)" fill="#f0ead6"/>
  </g>
</svg>
