<?xml version="1.0" standalone="no"?>
<!DOCTYPE svg PUBLIC "-//W3C//DTD SVG 20010904//EN"
 "http://www.w3.org/TR/2001/REC-SVG-20010904/DTD/svg10.dtd">
<svg version="1.0" xmlns="http://www.w3.org/2000/svg"
 width="260.000000pt" height="260.000000pt" viewBox="0 0 260.000000 260.000000"
 preserveAspectRatio="xMidYMid meet">
<metadata>
Created by potrace 1.14, written by Peter Selinger 2001-2017
</metadata>
<g transform="translate(0.000000,260.000000) scale(0.100000,-0.100000)"
fill="#000000" stroke="none">
<path d="M0 1300 l0 -1300 1300 0 1300 0 0 1300 0 1300 -1300 0 -1300 0 0
-1300z m1553 986 c775 -198 1033 -1170 456 -1721 -186 -177 -401 -270 -654
-282 -752 -35 -1280 725 -985 1419 58 136 217 348 261 348 42 0 31 -30 -34
-99 -299 -318 -340 -813 -97 -1183 61 -92 173 -207 253 -259 56 -37 65 -39
136 -39 195 0 341 95 341 220 0 103 -69 152 -339 239 -280 91 -384 150 -432
242 -62 122 -31 297 71 399 45 45 120 84 183 95 l37 7 0 138 c0 124 -2 139
-20 155 -11 10 -20 22 -20 27 0 4 48 8 106 8 l106 0 -26 -34 c-25 -33 -26 -40
-26 -165 l0 -131 28 -6 c83 -18 145 -40 216 -75 43 -21 80 -39 82 -39 2 0 4
127 4 281 l0 282 -57 53 -58 53 100 0 100 0 375 -435 375 -435 3 288 2 287
-62 63 c-109 110 -260 198 -419 243 -144 41 -367 38 -531 -7 -54 -14 -59 -18
-68 -53 -6 -24 -28 -54 -58 -82 -75 -71 -82 -72 -136 -36 -71 46 -101 91 -101
151 0 41 4 53 28 73 29 24 79 32 106 15 7 -5 25 -4 40 2 32 12 73 4 96 -19 14
-15 22 -14 94 5 121 33 186 40 311 36 79 -3 146 -12 213 -29z"/>
<path d="M720 2240 c-11 -11 -20 -28 -20 -38 0 -27 52 -94 88 -115 l31 -18 51
49 c54 52 66 95 34 126 -20 20 -29 20 -64 0 -26 -16 -29 -16 -51 0 -31 21 -45
20 -69 -4z"/>
<path d="M1240 1633 l0 -443 36 -40 c19 -21 44 -42 55 -45 49 -16 9 -25 -111
-25 -71 0 -130 4 -130 9 0 5 16 18 35 30 119 70 92 247 -58 388 -52 48 -168
123 -191 123 -3 0 -6 -116 -6 -258 l0 -258 56 -18 c98 -31 217 -85 267 -121
60 -45 106 -107 113 -157 l7 -38 38 35 c21 19 63 49 94 66 50 28 54 33 48 57
-33 122 35 267 151 327 53 27 69 30 152 30 80 0 91 2 81 15 -7 8 -147 177
-312 375 -165 197 -305 366 -312 375 -10 12 -12 -78 -13 -427z"/>
<path d="M2080 1534 c0 -333 1 -342 21 -368 35 -44 59 -123 66 -210 l6 -81 23
52 c52 117 68 207 68 373 -1 126 -5 169 -22 231 -28 102 -71 203 -121 281
l-41 63 0 -341z"/>
<path d="M660 1619 c-152 -69 -212 -238 -120 -343 28 -31 136 -95 188 -111
l22 -6 0 240 0 241 -22 0 c-13 0 -43 -10 -68 -21z"/>
<path d="M1651 1244 c-60 -30 -113 -95 -132 -161 -10 -39 -9 -146 2 -158 3 -2
35 4 72 15 130 37 290 47 385 23 22 -5 23 -4 17 48 -16 129 -57 209 -126 245
-48 24 -156 18 -218 -12z"/>
<path d="M1772 950 c-170 -24 -293 -102 -347 -222 -26 -57 -27 -68 -23 -162 5
-106 23 -160 66 -199 19 -17 23 -17 81 -2 138 36 269 104 389 204 l62 52 0
158 c0 156 0 159 -22 164 -49 12 -146 15 -206 7z"/>
<path d="M1190 534 c-53 -39 -159 -80 -230 -90 -28 -4 -53 -10 -55 -14 -6 -10
75 -44 150 -64 65 -16 208 -36 264 -36 l34 0 -38 38 c-43 43 -65 88 -74 153
l-6 46 -45 -33z"/>
</g>
</svg>
