<svg data-name="star_black_24dp (2)" xmlns="http://www.w3.org/2000/svg" width="64.6" height="64.6" viewBox="0 0 64.6 64.6">
    <g data-name="그룹 233">
        <path data-name="패스 256" d="M0 0h64.6v64.6H0z" style="fill:none"/>
        <path data-name="패스 257" d="M0 0h64.6v64.6H0z" style="fill:none"/>
    </g>
    <g data-name="그룹 234">
        <path data-name="패스 258" d="M26.445 40.564 37.6 47.342a2.685 2.685 0 0 0 4.005-2.917l-2.956-12.746 9.865-8.588a2.7 2.7 0 0 0-1.532-4.726L34 17.258 28.918 5.213a2.684 2.684 0 0 0-4.946 0l-5.08 12.018-12.984 1.107a2.7 2.7 0 0 0-1.532 4.726l9.865 8.588L11.284 44.4a2.685 2.685 0 0 0 4.005 2.917z" transform="translate(5.855 6.075)" style="fill:#dfcbb5"/>
    </g>
</svg>
