<svg xmlns="http://www.w3.org/2000/svg" width="64.6" height="64.6" viewBox="0 0 64.6 64.6">
    <path data-name="패스 259" d="M0 0h64.6v64.6H0z" style="fill:none"/>
    <path data-name="패스 260" d="M47.009 18.283 34 17.155 28.918 5.2a2.689 2.689 0 0 0-4.946 0l-5.08 11.986-12.983 1.1a2.682 2.682 0 0 0-1.532 4.7l9.865 8.546-2.958 12.686a2.682 2.682 0 0 0 4.005 2.9L26.445 40.4 37.6 47.147a2.682 2.682 0 0 0 4.005-2.9l-2.956-12.714 9.865-8.546a2.676 2.676 0 0 0-1.505-4.7zM26.445 35.376l-10.107 6.1 2.688-11.5-8.926-7.742 11.774-1.021 4.57-10.831 4.6 10.858 11.774 1.021L33.891 30l2.688 11.5z" transform="translate(5.855 6.058)" style="fill:#c7c7c7"/>
</svg>
