<svg id="sns-icon-utb-on" xmlns="http://www.w3.org/2000/svg" xmlns:xlink="http://www.w3.org/1999/xlink" width="48" height="48" viewBox="0 0 48 48">
  <defs>
    <linearGradient id="linear-gradient" x1="0.867" y1="0.078" x2="0.123" y2="0.933" gradientUnits="objectBoundingBox">
      <stop offset="0" stop-color="#dc00a5"/>
      <stop offset="0.573" stop-color="#fd0107"/>
      <stop offset="1" stop-color="#ffd000"/>
    </linearGradient>
  </defs>
  <circle id="타원_17" data-name="타원 17" cx="24" cy="24" r="24" fill="red" opacity="0"/>
  <path id="패스_33101" data-name="패스 33101" d="M15-22.764q2.49,0,3.281.015t1.787.073a7.5,7.5,0,0,1,1.436.161,2.9,2.9,0,0,1,.879.337,2.7,2.7,0,0,1,.762.352,5.71,5.71,0,0,1,.674.527,3.827,3.827,0,0,1,.527.645,3.315,3.315,0,0,1,.352.791q.088.322.234.864a7.662,7.662,0,0,1,.205,1.45q.029.967.044,1.772T25.2-12.51q0,2.49-.015,3.3t-.044,1.772A6.374,6.374,0,0,1,25-5.991a3.631,3.631,0,0,1-.308.864,3.473,3.473,0,0,1-.381.762q-.234.352-.5.674a3.827,3.827,0,0,1-.645.527,3.315,3.315,0,0,1-.791.352q-.322.088-.879.234a7.859,7.859,0,0,1-1.436.205q-1,.059-1.787.059H11.719q-.791,0-1.787-.059A6.41,6.41,0,0,1,8.5-2.5a3.617,3.617,0,0,1-.879-.308,3.919,3.919,0,0,1-.762-.366,4.723,4.723,0,0,1-.674-.513,3.827,3.827,0,0,1-.527-.645A3.315,3.315,0,0,1,5.3-5.127q-.117-.322-.278-.864a6.809,6.809,0,0,1-.22-1.45q-.029-.967-.044-1.772t-.015-3.3q0-2.461.015-3.267T4.8-17.549A8.777,8.777,0,0,1,5-19a3.631,3.631,0,0,1,.308-.864,3.026,3.026,0,0,1,.381-.776q.234-.337.5-.659a3.275,3.275,0,0,1,.645-.557,2.677,2.677,0,0,1,.791-.322,6.725,6.725,0,0,1,.879-.308,6.015,6.015,0,0,1,1.436-.19q1,0,1.787-.044T15-22.764Zm0-2.227H11.675q-.806,0-1.8.059a10.5,10.5,0,0,0-1.729.176,7.529,7.529,0,0,0-1.318.381q-.615.293-1.187.6a4.241,4.241,0,0,0-1.069.835,5.3,5.3,0,0,0-.85,1.084,10.927,10.927,0,0,0-.586,1.172,9.6,9.6,0,0,0-.366,1.318,11.879,11.879,0,0,0-.22,1.729q-.029,1-.044,1.8T2.49-12.51q0,2.549.015,3.354t.044,1.772a12.749,12.749,0,0,0,.205,1.729,8.427,8.427,0,0,0,.381,1.348,8.945,8.945,0,0,0,.586,1.143,7.68,7.68,0,0,0,.85,1.113,6.4,6.4,0,0,0,1.04.85,5.611,5.611,0,0,0,1.216.586q.557.176,1.3.337a11.581,11.581,0,0,0,1.743.22q1,.029,1.8.044T15,0q2.52,0,3.325-.015t1.8-.044a14.8,14.8,0,0,0,1.729-.19,6.789,6.789,0,0,0,1.318-.366q.615-.293,1.157-.615a7.12,7.12,0,0,0,1.1-.82,6.019,6.019,0,0,0,.864-1.069,6.35,6.35,0,0,0,.571-1.187,9.6,9.6,0,0,0,.366-1.318,11.965,11.965,0,0,0,.22-1.758q.029-.967.044-1.772t.015-3.354q0-2.52-.015-3.325t-.044-1.8a12.661,12.661,0,0,0-.205-1.7,8.428,8.428,0,0,0-.381-1.348,9.864,9.864,0,0,0-.586-1.157,6.3,6.3,0,0,0-.85-1.1,3.727,3.727,0,0,0-1.069-.85q-.571-.293-1.187-.586-.557-.176-1.3-.352a8.807,8.807,0,0,0-1.743-.205q-1-.059-1.8-.059Zm0,6.123a6.268,6.268,0,0,0-2.5.5,6.415,6.415,0,0,0-2.021,1.362,6.371,6.371,0,0,0-1.362,2.036,6.228,6.228,0,0,0-.5,2.461,6.2,6.2,0,0,0,.5,2.476A6.593,6.593,0,0,0,10.474-8,6.3,6.3,0,0,0,12.5-6.621a6.268,6.268,0,0,0,2.5.5,6.268,6.268,0,0,0,2.5-.5,6.415,6.415,0,0,0,2.021-1.362A6.415,6.415,0,0,0,20.889-10a6.268,6.268,0,0,0,.5-2.5,6.3,6.3,0,0,0-.5-2.49,6.2,6.2,0,0,0-1.362-2.021A6.542,6.542,0,0,0,17.5-18.369,6.268,6.268,0,0,0,15-18.867ZM15-8.32a4.059,4.059,0,0,1-2.959-1.216,4.02,4.02,0,0,1-1.23-2.974,4.034,4.034,0,0,1,1.23-2.959A4.034,4.034,0,0,1,15-16.7a4.034,4.034,0,0,1,2.959,1.23,4.034,4.034,0,0,1,1.23,2.959,4.02,4.02,0,0,1-1.23,2.974A4.059,4.059,0,0,1,15-8.32Zm8.174-10.869a1.438,1.438,0,0,1-.439,1.055,1.438,1.438,0,0,1-1.055.439,1.438,1.438,0,0,1-1.055-.439,1.438,1.438,0,0,1-.439-1.055,1.438,1.438,0,0,1,.439-1.055,1.438,1.438,0,0,1,1.055-.439,1.438,1.438,0,0,1,1.055.439A1.438,1.438,0,0,1,23.174-19.189Z" transform="translate(9 37)" fill="url(#linear-gradient)"/>
</svg>
